{
  "accessors": [
    {
      "bufferView": 2,
      "componentType": 5126,
      "count": 24,
      "max": [
        0.18896484375,
        0.9326171875,
        0.895751953125
      ],
      "min": [
        -0.18896484375,
        0.585693359375,
        0.285888671875
      ],
      "type": "VEC3"
    },
    {
      "bufferView": 2,
      "byteOffset": 288,
      "componentType": 5126,
      "count": 24,
      "max": [
        0.9670810699462891,
        0.8104217052459717,
        0.9973888993263245
      ],
      "min": [
        -0.9670810699462891,
        -0.19536466896533966,
        -0.9807306528091431
      ],
      "type": "VEC3"
    },
    {
      "bufferView": 1,
      "componentType": 5126,
      "count": 24,
      "max": [
        1.177734375,
        1.1640625
      ],
      "min": [
        -0.302734375,
        0.005859375
      ],
      "type": "VEC2"
    },
    {
      "bufferView": 1,
      "byteOffset": 192,
      "componentType": 5126,
      "count": 24,
      "max": [
        1.177734375,
        1.1640625
      ],
      "min": [
        -0.302734375,
        0.005859375
      ],
      "type": "VEC2"
    },
    {
      "bufferView": 0,
      "componentType": 5125,
      "count": 33,
      "type": "SCALAR"
    },
    {
      "bufferView": 2,
      "byteOffset": 576,
      "componentType": 5126,
      "count": 341,
      "max": [
        0.430419921875,
        1.105224609375,
        0.991943359375
      ],
      "min": [
        -0.430419921875,
        0.0,
        -0.536376953125
      ],
      "type": "VEC3"
    },
    {
      "bufferView": 2,
      "byteOffset": 4668,
      "componentType": 5126,
      "count": 341,
      "max": [
        0.9764935970306396,
        0.9986070394515991,
        0.998898983001709
      ],
      "min": [
        -0.9764935970306396,
        -0.9447072744369507,
        -0.9975275993347168
      ],
      "type": "VEC3"
    },
    {
      "bufferView": 1,
      "byteOffset": 384,
      "componentType": 5126,
      "count": 341,
      "max": [
        1.462890625,
        1.646484375
      ],
      "min": [
        -0.560546875,
        -1.09765625
      ],
      "type": "VEC2"
    },
    {
      "bufferView": 0,
      "byteOffset": 132,
      "componentType": 5125,
      "count": 480,
      "type": "SCALAR"
    },
    {
      "bufferView": 2,
      "byteOffset": 8760,
      "componentType": 5126,
      "count": 24,
      "max": [
        0.18896484375,
        0.9326171875,
        0.895751953125
      ],
      "min": [
        -0.18896484375,
        0.585693359375,
        0.285888671875
      ],
      "type": "VEC3"
    },
    {
      "bufferView": 2,
      "byteOffset": 9048,
      "componentType": 5126,
      "count": 24,
      "max": [
        0.9670810699462891,
        0.8104217052459717,
        0.9973888993263245
      ],
      "min": [
        -0.9670810699462891,
        -0.19536466896533966,
        -0.9807306528091431
      ],
      "type": "VEC3"
    },
    {
      "bufferView": 1,
      "byteOffset": 3112,
      "componentType": 5126,
      "count": 24,
      "max": [
        1.177734375,
        1.1640625
      ],
      "min": [
        -0.302734375,
        0.005859375
      ],
      "type": "VEC2"
    },
    {
      "bufferView": 1,
      "byteOffset": 3304,
      "componentType": 5126,
      "count": 24,
      "max": [
        1.177734375,
        1.1640625
      ],
      "min": [
        -0.302734375,
        0.005859375
      ],
      "type": "VEC2"
    },
    {
      "bufferView": 0,
      "byteOffset": 2052,
      "componentType": 5125,
      "count": 33,
      "type": "SCALAR"
    },
    {
      "bufferView": 2,
      "byteOffset": 9336,
      "componentType": 5126,
      "count": 341,
      "max": [
        0.430419921875,
        1.105224609375,
        0.991943359375
      ],
      "min": [
        -0.430419921875,
        0.0,
        -0.536376953125
      ],
      "type": "VEC3"
    },
    {
      "bufferView": 2,
      "byteOffset": 13428,
      "componentType": 5126,
      "count": 341,
      "max": [
        0.9764935970306396,
        0.9986070394515991,
        0.998898983001709
      ],
      "min": [
        -0.9764935970306396,
        -0.9447072744369507,
        -0.9975275993347168
      ],
      "type": "VEC3"
    },
    {
      "bufferView": 1,
      "byteOffset": 3496,
      "componentType": 5126,
      "count": 341,
      "max": [
        1.462890625,
        1.646484375
      ],
      "min": [
        -0.560546875,
        -1.09765625
      ],
      "type": "VEC2"
    },
    {
      "bufferView": 0,
      "byteOffset": 2184,
      "componentType": 5125,
      "count": 480,
      "type": "SCALAR"
    }
  ],
  "asset": {
    "extras": {
      "author": "Waffles (https://sketchfab.com/jkimmel694)",
      "license": "CC-BY-4.0 (http://creativecommons.org/licenses/by/4.0/)",
      "source": "https://sketchfab.com/3d-models/ds-dsi-mario-kart-ds-bowser-4df536500542462d8b77100035a8f43e",
      "title": "DS DSi - Mario Kart DS - Bowser"
    },
    "generator": "Sketchfab-16.68.0",
    "version": "2.0"
  },
  "bufferViews": [
    {
      "buffer": 0,
      "byteLength": 4104,
      "name": "floatBufferViews",
      "target": 34963
    },
    {
      "buffer": 0,
      "byteLength": 6224,
      "byteOffset": 4104,
      "byteStride": 8,
      "name": "floatBufferViews",
      "target": 34962
    },
    {
      "buffer": 0,
      "byteLength": 17520,
      "byteOffset": 10328,
      "byteStride": 12,
      "name": "floatBufferViews",
      "target": 34962
    }
  ],
  "buffers": [
    {
      "byteLength": 27848,
      "uri": "scene.bin"
    }
  ],
  "images": [
    {
      "uri": "textures/E_face_baseColor.png"
    },
    {
      "uri": "textures/E_main_baseColor.png"
    }
  ],
  "materials": [
    {
      "doubleSided": true,
      "name": "E_face",
      "pbrMetallicRoughness": {
        "baseColorTexture": {
          "index": 0
        },
        "metallicFactor": 0.0,
        "roughnessFactor": 0.6
      }
    },
    {
      "doubleSided": true,
      "name": "E_main",
      "pbrMetallicRoughness": {
        "baseColorTexture": {
          "index": 1
        },
        "metallicFactor": 0.0,
        "roughnessFactor": 0.6
      }
    }
  ],
  "meshes": [
    {
      "name": "Object_0",
      "primitives": [
        {
          "attributes": {
            "NORMAL": 1,
            "POSITION": 0,
            "TEXCOORD_0": 2,
            "TEXCOORD_1": 3
          },
          "indices": 4,
          "material": 0,
          "mode": 4
        }
      ]
    },
    {
      "name": "Object_1",
      "primitives": [
        {
          "attributes": {
            "NORMAL": 6,
            "POSITION": 5,
            "TEXCOORD_0": 7
          },
          "indices": 8,
          "material": 1,
          "mode": 4
        }
      ]
    },
    {
      "name": "Object_2",
      "primitives": [
        {
          "attributes": {
            "NORMAL": 10,
            "POSITION": 9,
            "TEXCOORD_0": 11,
            "TEXCOORD_1": 12
          },
          "indices": 13,
          "material": 0,
          "mode": 4
        }
      ]
    },
    {
      "name": "Object_3",
      "primitives": [
        {
          "attributes": {
            "NORMAL": 15,
            "POSITION": 14,
            "TEXCOORD_0": 16
          },
          "indices": 17,
          "material": 1,
          "mode": 4
        }
      ]
    }
  ],
  "nodes": [
    {
      "children": [
        1
      ],
      "matrix": [
        1.0,
        0.0,
        0.0,
        0.0,
        0.0,
        2.220446049250313e-16,
        -1.0,
        0.0,
        0.0,
        1.0,
        2.220446049250313e-16,
        0.0,
        0.0,
        0.0,
        0.0,
        1.0
      ],
      "name": "Sketchfab_model"
    },
    {
      "children": [
        2
      ],
      "matrix": [
        1.0,
        0.0,
        0.0,
        0.0,
        0.0,
        -4.371139006309477e-08,
        0.999999999999999,
        0.0,
        0.0,
        -0.999999999999999,
        -4.371139006309477e-08,
        0.0,
        0.0,
        0.0,
        0.0,
        1.0
      ],
      "name": "Collada visual scene group"
    },
    {
      "children": [
        3,
        4,
        5,
        6
      ],
      "name": "Object_2"
    },
    {
      "mesh": 0,
      "name": "Object_3"
    },
    {
      "mesh": 1,
      "name": "Object_4"
    },
    {
      "mesh": 2,
      "name": "Object_5"
    },
    {
      "mesh": 3,
      "name": "Object_6"
    }
  ],
  "samplers": [
    {
      "magFilter": 9728,
      "minFilter": 9728,
      "wrapS": 10497,
      "wrapT": 10497
    },
    {
      "magFilter": 9728,
      "minFilter": 9728,
      "wrapS": 33648,
      "wrapT": 33648
    }
  ],
  "scene": 0,
  "scenes": [
    {
      "name": "Sketchfab_Scene",
      "nodes": [
        0
      ]
    }
  ],
  "textures": [
    {
      "sampler": 0,
      "source": 0
    },
    {
      "sampler": 1,
      "source": 1
    }
  ]
}
