{
    "asset" : {
        "generator" : "Khronos glTF Blender I/O v1.8.19",
        "version" : "2.0"
    },
    "scene" : 0,
    "scenes" : [
        {
            "name" : "Scene",
            "nodes" : [
                8
            ]
        }
    ],
    "nodes" : [
        {
            "mesh" : 0,
            "name" : "BL_tire"
        },
        {
            "mesh" : 1,
            "name" : "BR_tire"
        },
        {
            "mesh" : 2,
            "name" : "chassis"
        },
        {
            "mesh" : 3,
            "name" : "FL_tire"
        },
        {
            "mesh" : 4,
            "name" : "FR_tire"
        },
        {
            "mesh" : 5,
            "name" : "steering_wheel"
        },
        {
            "children" : [
                0,
                1,
                2,
                3,
                4,
                5
            ],
            "name" : "F2_Item_Kart_Mario_S"
        },
        {
            "children" : [
                6
            ],
            "name" : "Collada visual scene group",
            "rotation" : [
                0.7071068286895752,
                0,
                0,
                0.7071068286895752
            ]
        },
        {
            "children" : [
                7
            ],
            "name" : "Sketchfab_model",
            "rotation" : [
                -0.7071068286895752,
                0,
                0,
                0.7071068286895752
            ]
        }
    ],
    "materials" : [
        {
            "doubleSided" : true,
            "name" : "mt_Kart_Mario_Tire_S",
            "pbrMetallicRoughness" : {
                "baseColorTexture" : {
                    "index" : 0
                },
                "metallicFactor" : 0,
                "roughnessFactor" : 0.6000000238418579
            }
        },
        {
            "doubleSided" : true,
            "name" : "mt_kart_Mario_S",
            "pbrMetallicRoughness" : {
                "baseColorTexture" : {
                    "index" : 1
                },
                "metallicFactor" : 0,
                "roughnessFactor" : 0.6000000238418579
            }
        }
    ],
    "meshes" : [
        {
            "name" : "mt_Kart_Mario_Tire_S.001",
            "primitives" : [
                {
                    "attributes" : {
                        "POSITION" : 0,
                        "NORMAL" : 1,
                        "TEXCOORD_0" : 2,
                        "COLOR_0" : 3
                    },
                    "indices" : 4,
                    "material" : 0
                }
            ]
        },
        {
            "name" : "mt_Kart_Mario_Tire_S.002",
            "primitives" : [
                {
                    "attributes" : {
                        "POSITION" : 5,
                        "NORMAL" : 6,
                        "TEXCOORD_0" : 7,
                        "COLOR_0" : 8
                    },
                    "indices" : 9,
                    "material" : 0
                }
            ]
        },
        {
            "name" : "mt_kart_Mario_S",
            "primitives" : [
                {
                    "attributes" : {
                        "POSITION" : 10,
                        "NORMAL" : 11,
                        "TEXCOORD_0" : 12,
                        "COLOR_0" : 13
                    },
                    "indices" : 14,
                    "material" : 1
                }
            ]
        },
        {
            "name" : "mt_Kart_Mario_Tire_S.004",
            "primitives" : [
                {
                    "attributes" : {
                        "POSITION" : 15,
                        "NORMAL" : 16,
                        "TEXCOORD_0" : 17,
                        "COLOR_0" : 18
                    },
                    "indices" : 9,
                    "material" : 0
                }
            ]
        },
        {
            "name" : "mt_Kart_Mario_Tire_S.003",
            "primitives" : [
                {
                    "attributes" : {
                        "POSITION" : 19,
                        "NORMAL" : 20,
                        "TEXCOORD_0" : 21,
                        "COLOR_0" : 22
                    },
                    "indices" : 4,
                    "material" : 0
                }
            ]
        },
        {
            "name" : "mt_kart_Mario_S.001",
            "primitives" : [
                {
                    "attributes" : {
                        "POSITION" : 23,
                        "NORMAL" : 24,
                        "TEXCOORD_0" : 25,
                        "COLOR_0" : 26
                    },
                    "indices" : 27,
                    "material" : 1
                }
            ]
        }
    ],
    "textures" : [
        {
            "sampler" : 0,
            "source" : 0
        },
        {
            "sampler" : 0,
            "source" : 1
        }
    ],
    "images" : [
        {
            "mimeType" : "image/png",
            "name" : "Image_1",
            "uri" : "textures/Image_1.png"
        },
        {
            "mimeType" : "image/png",
            "name" : "Image_0",
            "uri" : "textures/Image_0.png"
        }
    ],
    "accessors" : [
        {
            "bufferView" : 0,
            "componentType" : 5126,
            "count" : 52,
            "max" : [
                0.6179779767990112,
                0.43970099091529846,
                -0.1307400017976761
            ],
            "min" : [
                0.2865450084209442,
                -0.0008326689712703228,
                -0.5712739825248718
            ],
            "type" : "VEC3"
        },
        {
            "bufferView" : 1,
            "componentType" : 5126,
            "count" : 52,
            "type" : "VEC3"
        },
        {
            "bufferView" : 2,
            "componentType" : 5126,
            "count" : 52,
            "type" : "VEC2"
        },
        {
            "bufferView" : 3,
            "componentType" : 5123,
            "count" : 52,
            "normalized" : true,
            "type" : "VEC4"
        },
        {
            "bufferView" : 4,
            "componentType" : 5123,
            "count" : 144,
            "type" : "SCALAR"
        },
        {
            "bufferView" : 5,
            "componentType" : 5126,
            "count" : 52,
            "max" : [
                -0.2940390110015869,
                0.43970099091529846,
                -0.1307400017976761
            ],
            "min" : [
                -0.6179779767990112,
                -0.0008326689712703228,
                -0.5712739825248718
            ],
            "type" : "VEC3"
        },
        {
            "bufferView" : 6,
            "componentType" : 5126,
            "count" : 52,
            "type" : "VEC3"
        },
        {
            "bufferView" : 7,
            "componentType" : 5126,
            "count" : 52,
            "type" : "VEC2"
        },
        {
            "bufferView" : 8,
            "componentType" : 5123,
            "count" : 52,
            "normalized" : true,
            "type" : "VEC4"
        },
        {
            "bufferView" : 9,
            "componentType" : 5123,
            "count" : 144,
            "type" : "SCALAR"
        },
        {
            "bufferView" : 10,
            "componentType" : 5126,
            "count" : 431,
            "max" : [
                0.6250900030136108,
                0.6246309876441956,
                1.0730700492858887
            ],
            "min" : [
                -0.6233540177345276,
                0.0468796007335186,
                -0.9783290028572083
            ],
            "type" : "VEC3"
        },
        {
            "bufferView" : 11,
            "componentType" : 5126,
            "count" : 431,
            "type" : "VEC3"
        },
        {
            "bufferView" : 12,
            "componentType" : 5126,
            "count" : 431,
            "type" : "VEC2"
        },
        {
            "bufferView" : 13,
            "componentType" : 5123,
            "count" : 431,
            "normalized" : true,
            "type" : "VEC4"
        },
        {
            "bufferView" : 14,
            "componentType" : 5123,
            "count" : 978,
            "type" : "SCALAR"
        },
        {
            "bufferView" : 15,
            "componentType" : 5126,
            "count" : 52,
            "max" : [
                0.5298150181770325,
                0.3452009856700897,
                0.6250439882278442
            ],
            "min" : [
                0.2743769884109497,
                -0.0012316700303927064,
                0.2786119878292084
            ],
            "type" : "VEC3"
        },
        {
            "bufferView" : 16,
            "componentType" : 5126,
            "count" : 52,
            "type" : "VEC3"
        },
        {
            "bufferView" : 17,
            "componentType" : 5126,
            "count" : 52,
            "type" : "VEC2"
        },
        {
            "bufferView" : 18,
            "componentType" : 5123,
            "count" : 52,
            "normalized" : true,
            "type" : "VEC4"
        },
        {
            "bufferView" : 19,
            "componentType" : 5126,
            "count" : 52,
            "max" : [
                -0.2743769884109497,
                0.3452009856700897,
                0.6250439882278442
            ],
            "min" : [
                -0.5298150181770325,
                -0.0012316700303927064,
                0.2786119878292084
            ],
            "type" : "VEC3"
        },
        {
            "bufferView" : 20,
            "componentType" : 5126,
            "count" : 52,
            "type" : "VEC3"
        },
        {
            "bufferView" : 21,
            "componentType" : 5126,
            "count" : 52,
            "type" : "VEC2"
        },
        {
            "bufferView" : 22,
            "componentType" : 5123,
            "count" : 52,
            "normalized" : true,
            "type" : "VEC4"
        },
        {
            "bufferView" : 23,
            "componentType" : 5126,
            "count" : 61,
            "max" : [
                0.14164599776268005,
                0.6020780205726624,
                0.3115040063858032
            ],
            "min" : [
                -0.14164599776268005,
                0.35209500789642334,
                0.22424300014972687
            ],
            "type" : "VEC3"
        },
        {
            "bufferView" : 24,
            "componentType" : 5126,
            "count" : 61,
            "type" : "VEC3"
        },
        {
            "bufferView" : 25,
            "componentType" : 5126,
            "count" : 61,
            "type" : "VEC2"
        },
        {
            "bufferView" : 26,
            "componentType" : 5123,
            "count" : 61,
            "normalized" : true,
            "type" : "VEC4"
        },
        {
            "bufferView" : 27,
            "componentType" : 5123,
            "count" : 105,
            "type" : "SCALAR"
        }
    ],
    "bufferViews" : [
        {
            "buffer" : 0,
            "byteLength" : 624,
            "byteOffset" : 0
        },
        {
            "buffer" : 0,
            "byteLength" : 624,
            "byteOffset" : 624
        },
        {
            "buffer" : 0,
            "byteLength" : 416,
            "byteOffset" : 1248
        },
        {
            "buffer" : 0,
            "byteLength" : 416,
            "byteOffset" : 1664
        },
        {
            "buffer" : 0,
            "byteLength" : 288,
            "byteOffset" : 2080
        },
        {
            "buffer" : 0,
            "byteLength" : 624,
            "byteOffset" : 2368
        },
        {
            "buffer" : 0,
            "byteLength" : 624,
            "byteOffset" : 2992
        },
        {
            "buffer" : 0,
            "byteLength" : 416,
            "byteOffset" : 3616
        },
        {
            "buffer" : 0,
            "byteLength" : 416,
            "byteOffset" : 4032
        },
        {
            "buffer" : 0,
            "byteLength" : 288,
            "byteOffset" : 4448
        },
        {
            "buffer" : 0,
            "byteLength" : 5172,
            "byteOffset" : 4736
        },
        {
            "buffer" : 0,
            "byteLength" : 5172,
            "byteOffset" : 9908
        },
        {
            "buffer" : 0,
            "byteLength" : 3448,
            "byteOffset" : 15080
        },
        {
            "buffer" : 0,
            "byteLength" : 3448,
            "byteOffset" : 18528
        },
        {
            "buffer" : 0,
            "byteLength" : 1956,
            "byteOffset" : 21976
        },
        {
            "buffer" : 0,
            "byteLength" : 624,
            "byteOffset" : 23932
        },
        {
            "buffer" : 0,
            "byteLength" : 624,
            "byteOffset" : 24556
        },
        {
            "buffer" : 0,
            "byteLength" : 416,
            "byteOffset" : 25180
        },
        {
            "buffer" : 0,
            "byteLength" : 416,
            "byteOffset" : 25596
        },
        {
            "buffer" : 0,
            "byteLength" : 624,
            "byteOffset" : 26012
        },
        {
            "buffer" : 0,
            "byteLength" : 624,
            "byteOffset" : 26636
        },
        {
            "buffer" : 0,
            "byteLength" : 416,
            "byteOffset" : 27260
        },
        {
            "buffer" : 0,
            "byteLength" : 416,
            "byteOffset" : 27676
        },
        {
            "buffer" : 0,
            "byteLength" : 732,
            "byteOffset" : 28092
        },
        {
            "buffer" : 0,
            "byteLength" : 732,
            "byteOffset" : 28824
        },
        {
            "buffer" : 0,
            "byteLength" : 488,
            "byteOffset" : 29556
        },
        {
            "buffer" : 0,
            "byteLength" : 488,
            "byteOffset" : 30044
        },
        {
            "buffer" : 0,
            "byteLength" : 210,
            "byteOffset" : 30532
        }
    ],
    "samplers" : [
        {
            "magFilter" : 9729,
            "minFilter" : 9987
        }
    ],
    "buffers" : [
        {
            "byteLength" : 30744,
            "uri" : "scene.bin"
        }
    ]
}
