{
  "accessors": [
    {
      "bufferView": 2,
      "componentType": 5126,
      "count": 29,
      "max": [
        0.1123046875,
        0.525146484375,
        0.17822265625
      ],
      "min": [
        -0.1123046875,
        0.329345703125,
        0.0068359375
      ],
      "type": "VEC3"
    },
    {
      "bufferView": 2,
      "byteOffset": 348,
      "componentType": 5126,
      "count": 29,
      "max": [
        0.839754045009613,
        0.3068314790725708,
        0.9982811212539673
      ],
      "min": [
        -0.8412354588508606,
        -0.9076735377311707,
        -0.4904467761516571
      ],
      "type": "VEC3"
    },
    {
      "bufferView": 1,
      "componentType": 5126,
      "count": 29,
      "max": [
        1.0,
        1.197265625
      ],
      "min": [
        -0.783203125,
        -0.37890625
      ],
      "type": "VEC2"
    },
    {
      "bufferView": 1,
      "byteOffset": 232,
      "componentType": 5126,
      "count": 29,
      "max": [
        1.0,
        1.197265625
      ],
      "min": [
        -0.783203125,
        -0.37890625
      ],
      "type": "VEC2"
    },
    {
      "bufferView": 0,
      "componentType": 5125,
      "count": 48,
      "type": "SCALAR"
    },
    {
      "bufferView": 2,
      "byteOffset": 696,
      "componentType": 5126,
      "count": 295,
      "max": [
        0.181640625,
        0.6796875,
        0.3310546875
      ],
      "min": [
        -0.181640625,
        -0.002685546875,
        -0.300048828125
      ],
      "type": "VEC3"
    },
    {
      "bufferView": 2,
      "byteOffset": 4236,
      "componentType": 5126,
      "count": 295,
      "max": [
        0.9909698963165283,
        0.9998278021812439,
        0.9889077544212341
      ],
      "min": [
        -0.9909698963165283,
        -0.9999923706054688,
        -0.9702572226524353
      ],
      "type": "VEC3"
    },
    {
      "bufferView": 1,
      "byteOffset": 464,
      "componentType": 5126,
      "count": 295,
      "max": [
        1.5146484375,
        2.4921875
      ],
      "min": [
        -0.77734375,
        -1.408203125
      ],
      "type": "VEC2"
    },
    {
      "bufferView": 1,
      "byteOffset": 2824,
      "componentType": 5126,
      "count": 295,
      "max": [
        1.5146484375,
        2.4921875
      ],
      "min": [
        -0.77734375,
        -1.408203125
      ],
      "type": "VEC2"
    },
    {
      "bufferView": 0,
      "byteOffset": 192,
      "componentType": 5125,
      "count": 390,
      "type": "SCALAR"
    },
    {
      "bufferView": 2,
      "byteOffset": 7776,
      "componentType": 5126,
      "count": 29,
      "max": [
        0.1123046875,
        0.525146484375,
        0.17822265625
      ],
      "min": [
        -0.1123046875,
        0.329345703125,
        0.0068359375
      ],
      "type": "VEC3"
    },
    {
      "bufferView": 2,
      "byteOffset": 8124,
      "componentType": 5126,
      "count": 29,
      "max": [
        0.839754045009613,
        0.3068314790725708,
        0.9982811212539673
      ],
      "min": [
        -0.8412354588508606,
        -0.9076735377311707,
        -0.4904467761516571
      ],
      "type": "VEC3"
    },
    {
      "bufferView": 1,
      "byteOffset": 5184,
      "componentType": 5126,
      "count": 29,
      "max": [
        1.0,
        1.197265625
      ],
      "min": [
        -0.783203125,
        -0.37890625
      ],
      "type": "VEC2"
    },
    {
      "bufferView": 1,
      "byteOffset": 5416,
      "componentType": 5126,
      "count": 29,
      "max": [
        1.0,
        1.197265625
      ],
      "min": [
        -0.783203125,
        -0.37890625
      ],
      "type": "VEC2"
    },
    {
      "bufferView": 0,
      "byteOffset": 1752,
      "componentType": 5125,
      "count": 48,
      "type": "SCALAR"
    },
    {
      "bufferView": 2,
      "byteOffset": 8472,
      "componentType": 5126,
      "count": 295,
      "max": [
        0.181640625,
        0.6796875,
        0.3310546875
      ],
      "min": [
        -0.181640625,
        -0.002685546875,
        -0.300048828125
      ],
      "type": "VEC3"
    },
    {
      "bufferView": 2,
      "byteOffset": 12012,
      "componentType": 5126,
      "count": 295,
      "max": [
        0.9909698963165283,
        0.9998278021812439,
        0.9889077544212341
      ],
      "min": [
        -0.9909698963165283,
        -0.9999923706054688,
        -0.9702572226524353
      ],
      "type": "VEC3"
    },
    {
      "bufferView": 1,
      "byteOffset": 5648,
      "componentType": 5126,
      "count": 295,
      "max": [
        1.5146484375,
        2.4921875
      ],
      "min": [
        -0.77734375,
        -1.408203125
      ],
      "type": "VEC2"
    },
    {
      "bufferView": 1,
      "byteOffset": 8008,
      "componentType": 5126,
      "count": 295,
      "max": [
        1.5146484375,
        2.4921875
      ],
      "min": [
        -0.77734375,
        -1.408203125
      ],
      "type": "VEC2"
    },
    {
      "bufferView": 0,
      "byteOffset": 1944,
      "componentType": 5125,
      "count": 390,
      "type": "SCALAR"
    }
  ],
  "asset": {
    "extras": {
      "author": "Waffles (https://sketchfab.com/jkimmel694)",
      "license": "CC-BY-4.0 (http://creativecommons.org/licenses/by/4.0/)",
      "source": "https://sketchfab.com/3d-models/ds-dsi-mario-kart-ds-peach-d2dc912491674963aaa265e16db29402",
      "title": "DS DSi - Mario Kart DS - Peach"
    },
    "generator": "Sketchfab-16.68.0",
    "version": "2.0"
  },
  "bufferViews": [
    {
      "buffer": 0,
      "byteLength": 3504,
      "name": "floatBufferViews",
      "target": 34963
    },
    {
      "buffer": 0,
      "byteLength": 10368,
      "byteOffset": 3504,
      "byteStride": 8,
      "name": "floatBufferViews",
      "target": 34962
    },
    {
      "buffer": 0,
      "byteLength": 15552,
      "byteOffset": 13872,
      "byteStride": 12,
      "name": "floatBufferViews",
      "target": 34962
    }
  ],
  "buffers": [
    {
      "byteLength": 29424,
      "uri": "scene.bin"
    }
  ],
  "images": [
    {
      "uri": "textures/E_face_baseColor.png"
    },
    {
      "uri": "textures/E_main_baseColor.png"
    }
  ],
  "materials": [
    {
      "doubleSided": true,
      "name": "E_face",
      "pbrMetallicRoughness": {
        "baseColorTexture": {
          "index": 0
        },
        "metallicFactor": 0.0,
        "roughnessFactor": 0.6
      }
    },
    {
      "doubleSided": true,
      "name": "E_main",
      "pbrMetallicRoughness": {
        "baseColorTexture": {
          "index": 1
        },
        "metallicFactor": 0.0,
        "roughnessFactor": 0.6
      }
    }
  ],
  "meshes": [
    {
      "name": "Object_0",
      "primitives": [
        {
          "attributes": {
            "NORMAL": 1,
            "POSITION": 0,
            "TEXCOORD_0": 2,
            "TEXCOORD_1": 3
          },
          "indices": 4,
          "material": 0,
          "mode": 4
        }
      ]
    },
    {
      "name": "Object_1",
      "primitives": [
        {
          "attributes": {
            "NORMAL": 6,
            "POSITION": 5,
            "TEXCOORD_0": 7,
            "TEXCOORD_1": 8
          },
          "indices": 9,
          "material": 1,
          "mode": 4
        }
      ]
    },
    {
      "name": "Object_2",
      "primitives": [
        {
          "attributes": {
            "NORMAL": 11,
            "POSITION": 10,
            "TEXCOORD_0": 12,
            "TEXCOORD_1": 13
          },
          "indices": 14,
          "material": 0,
          "mode": 4
        }
      ]
    },
    {
      "name": "Object_3",
      "primitives": [
        {
          "attributes": {
            "NORMAL": 16,
            "POSITION": 15,
            "TEXCOORD_0": 17,
            "TEXCOORD_1": 18
          },
          "indices": 19,
          "material": 1,
          "mode": 4
        }
      ]
    }
  ],
  "nodes": [
    {
      "children": [
        1
      ],
      "matrix": [
        1.0,
        0.0,
        0.0,
        0.0,
        0.0,
        2.220446049250313e-16,
        -1.0,
        0.0,
        0.0,
        1.0,
        2.220446049250313e-16,
        0.0,
        0.0,
        0.0,
        0.0,
        1.0
      ],
      "name": "Sketchfab_model"
    },
    {
      "children": [
        2
      ],
      "matrix": [
        1.0,
        0.0,
        0.0,
        0.0,
        0.0,
        -4.371139006309477e-08,
        0.999999999999999,
        0.0,
        0.0,
        -0.999999999999999,
        -4.371139006309477e-08,
        0.0,
        0.0,
        0.0,
        0.0,
        1.0
      ],
      "name": "Collada visual scene group"
    },
    {
      "children": [
        3,
        4,
        5,
        6
      ],
      "name": "Object_2"
    },
    {
      "mesh": 0,
      "name": "Object_3"
    },
    {
      "mesh": 1,
      "name": "Object_4"
    },
    {
      "mesh": 2,
      "name": "Object_5"
    },
    {
      "mesh": 3,
      "name": "Object_6"
    }
  ],
  "samplers": [
    {
      "magFilter": 9728,
      "minFilter": 9728,
      "wrapS": 10497,
      "wrapT": 10497
    },
    {
      "magFilter": 9728,
      "minFilter": 9728,
      "wrapS": 33648,
      "wrapT": 33648
    }
  ],
  "scene": 0,
  "scenes": [
    {
      "name": "Sketchfab_Scene",
      "nodes": [
        0
      ]
    }
  ],
  "textures": [
    {
      "sampler": 0,
      "source": 0
    },
    {
      "sampler": 1,
      "source": 1
    }
  ]
}
