{
  "accessors": [
    {
      "bufferView": 2,
      "componentType": 5126,
      "count": 25,
      "max": [
        0.08740234375,
        0.516845703125,
        0.130126953125
      ],
      "min": [
        -0.08740234375,
        0.323974609375,
        -0.010986328125
      ],
      "type": "VEC3"
    },
    {
      "bufferView": 2,
      "byteOffset": 300,
      "componentType": 5126,
      "count": 25,
      "max": [
        0.786024808883667,
        0.5116211771965027,
        0.9997683763504028
      ],
      "min": [
        -0.786024808883667,
        -0.8782682418823242,
        0.4781682789325714
      ],
      "type": "VEC3"
    },
    {
      "bufferView": 1,
      "componentType": 5126,
      "count": 25,
      "max": [
        0.005859375,
        4.357421875
      ],
      "min": [
        -1.056640625,
        0.08984375
      ],
      "type": "VEC2"
    },
    {
      "bufferView": 1,
      "byteOffset": 200,
      "componentType": 5126,
      "count": 25,
      "max": [
        0.005859375,
        4.357421875
      ],
      "min": [
        -1.056640625,
        0.08984375
      ],
      "type": "VEC2"
    },
    {
      "bufferView": 0,
      "componentType": 5125,
      "count": 42,
      "type": "SCALAR"
    },
    {
      "bufferView": 2,
      "byteOffset": 600,
      "componentType": 5126,
      "count": 273,
      "max": [
        0.18798828125,
        0.660888671875,
        0.326904296875
      ],
      "min": [
        -0.18798828125,
        0.0,
        -0.200439453125
      ],
      "type": "VEC3"
    },
    {
      "bufferView": 2,
      "byteOffset": 3876,
      "componentType": 5126,
      "count": 273,
      "max": [
        0.9989867806434631,
        1.0,
        0.9928675889968872
      ],
      "min": [
        -0.9989867806434631,
        -1.0,
        -0.9957804083824158
      ],
      "type": "VEC3"
    },
    {
      "bufferView": 1,
      "byteOffset": 400,
      "componentType": 5126,
      "count": 273,
      "max": [
        3.2998046875,
        2.994140625
      ],
      "min": [
        -0.4521484375,
        -1.5
      ],
      "type": "VEC2"
    },
    {
      "bufferView": 1,
      "byteOffset": 2584,
      "componentType": 5126,
      "count": 273,
      "max": [
        3.2998046875,
        2.994140625
      ],
      "min": [
        -0.4521484375,
        -1.5
      ],
      "type": "VEC2"
    },
    {
      "bufferView": 0,
      "byteOffset": 168,
      "componentType": 5125,
      "count": 387,
      "type": "SCALAR"
    },
    {
      "bufferView": 2,
      "byteOffset": 7152,
      "componentType": 5126,
      "count": 25,
      "max": [
        0.08740234375,
        0.516845703125,
        0.130126953125
      ],
      "min": [
        -0.08740234375,
        0.323974609375,
        -0.010986328125
      ],
      "type": "VEC3"
    },
    {
      "bufferView": 2,
      "byteOffset": 7452,
      "componentType": 5126,
      "count": 25,
      "max": [
        0.786024808883667,
        0.5116211771965027,
        0.9997683763504028
      ],
      "min": [
        -0.786024808883667,
        -0.8782682418823242,
        0.4781682789325714
      ],
      "type": "VEC3"
    },
    {
      "bufferView": 1,
      "byteOffset": 4768,
      "componentType": 5126,
      "count": 25,
      "max": [
        0.005859375,
        4.357421875
      ],
      "min": [
        -1.056640625,
        0.08984375
      ],
      "type": "VEC2"
    },
    {
      "bufferView": 1,
      "byteOffset": 4968,
      "componentType": 5126,
      "count": 25,
      "max": [
        0.005859375,
        4.357421875
      ],
      "min": [
        -1.056640625,
        0.08984375
      ],
      "type": "VEC2"
    },
    {
      "bufferView": 0,
      "byteOffset": 1716,
      "componentType": 5125,
      "count": 42,
      "type": "SCALAR"
    },
    {
      "bufferView": 2,
      "byteOffset": 7752,
      "componentType": 5126,
      "count": 273,
      "max": [
        0.18798828125,
        0.660888671875,
        0.326904296875
      ],
      "min": [
        -0.18798828125,
        0.0,
        -0.200439453125
      ],
      "type": "VEC3"
    },
    {
      "bufferView": 2,
      "byteOffset": 11028,
      "componentType": 5126,
      "count": 273,
      "max": [
        0.9989867806434631,
        1.0,
        0.9928675889968872
      ],
      "min": [
        -0.9989867806434631,
        -1.0,
        -0.9957804083824158
      ],
      "type": "VEC3"
    },
    {
      "bufferView": 1,
      "byteOffset": 5168,
      "componentType": 5126,
      "count": 273,
      "max": [
        3.2998046875,
        2.994140625
      ],
      "min": [
        -0.4521484375,
        -1.5
      ],
      "type": "VEC2"
    },
    {
      "bufferView": 1,
      "byteOffset": 7352,
      "componentType": 5126,
      "count": 273,
      "max": [
        3.2998046875,
        2.994140625
      ],
      "min": [
        -0.4521484375,
        -1.5
      ],
      "type": "VEC2"
    },
    {
      "bufferView": 0,
      "byteOffset": 1884,
      "componentType": 5125,
      "count": 387,
      "type": "SCALAR"
    }
  ],
  "asset": {
    "extras": {
      "author": "Waffles (https://sketchfab.com/jkimmel694)",
      "license": "CC-BY-4.0 (http://creativecommons.org/licenses/by/4.0/)",
      "source": "https://sketchfab.com/3d-models/ds-dsi-mario-kart-ds-daisy-dc23ec111cfa4bebab0f3f8e03846fc4",
      "title": "DS DSi - Mario Kart DS - Daisy"
    },
    "generator": "Sketchfab-16.68.0",
    "version": "2.0"
  },
  "bufferViews": [
    {
      "buffer": 0,
      "byteLength": 3432,
      "name": "floatBufferViews",
      "target": 34963
    },
    {
      "buffer": 0,
      "byteLength": 9536,
      "byteOffset": 3432,
      "byteStride": 8,
      "name": "floatBufferViews",
      "target": 34962
    },
    {
      "buffer": 0,
      "byteLength": 14304,
      "byteOffset": 12968,
      "byteStride": 12,
      "name": "floatBufferViews",
      "target": 34962
    }
  ],
  "buffers": [
    {
      "byteLength": 27272,
      "uri": "scene.bin"
    }
  ],
  "images": [
    {
      "uri": "textures/E_face_baseColor.png"
    },
    {
      "uri": "textures/E_main_baseColor.png"
    }
  ],
  "materials": [
    {
      "doubleSided": true,
      "name": "E_face",
      "pbrMetallicRoughness": {
        "baseColorTexture": {
          "index": 0
        },
        "metallicFactor": 0.0,
        "roughnessFactor": 0.6
      }
    },
    {
      "doubleSided": true,
      "name": "E_main",
      "pbrMetallicRoughness": {
        "baseColorTexture": {
          "index": 1
        },
        "metallicFactor": 0.0,
        "roughnessFactor": 0.6
      }
    }
  ],
  "meshes": [
    {
      "name": "Object_0",
      "primitives": [
        {
          "attributes": {
            "NORMAL": 1,
            "POSITION": 0,
            "TEXCOORD_0": 2,
            "TEXCOORD_1": 3
          },
          "indices": 4,
          "material": 0,
          "mode": 4
        }
      ]
    },
    {
      "name": "Object_1",
      "primitives": [
        {
          "attributes": {
            "NORMAL": 6,
            "POSITION": 5,
            "TEXCOORD_0": 7,
            "TEXCOORD_1": 8
          },
          "indices": 9,
          "material": 1,
          "mode": 4
        }
      ]
    },
    {
      "name": "Object_2",
      "primitives": [
        {
          "attributes": {
            "NORMAL": 11,
            "POSITION": 10,
            "TEXCOORD_0": 12,
            "TEXCOORD_1": 13
          },
          "indices": 14,
          "material": 0,
          "mode": 4
        }
      ]
    },
    {
      "name": "Object_3",
      "primitives": [
        {
          "attributes": {
            "NORMAL": 16,
            "POSITION": 15,
            "TEXCOORD_0": 17,
            "TEXCOORD_1": 18
          },
          "indices": 19,
          "material": 1,
          "mode": 4
        }
      ]
    }
  ],
  "nodes": [
    {
      "children": [
        1
      ],
      "matrix": [
        1.0,
        0.0,
        0.0,
        0.0,
        0.0,
        2.220446049250313e-16,
        -1.0,
        0.0,
        0.0,
        1.0,
        2.220446049250313e-16,
        0.0,
        0.0,
        0.0,
        0.0,
        1.0
      ],
      "name": "Sketchfab_model"
    },
    {
      "children": [
        2
      ],
      "matrix": [
        1.0,
        0.0,
        0.0,
        0.0,
        0.0,
        -4.371139006309477e-08,
        0.999999999999999,
        0.0,
        0.0,
        -0.999999999999999,
        -4.371139006309477e-08,
        0.0,
        0.0,
        0.0,
        0.0,
        1.0
      ],
      "name": "Collada visual scene group"
    },
    {
      "children": [
        3,
        4,
        5,
        6
      ],
      "name": "Object_2"
    },
    {
      "mesh": 0,
      "name": "Object_3"
    },
    {
      "mesh": 1,
      "name": "Object_4"
    },
    {
      "mesh": 2,
      "name": "Object_5"
    },
    {
      "mesh": 3,
      "name": "Object_6"
    }
  ],
  "samplers": [
    {
      "magFilter": 9728,
      "minFilter": 9728,
      "wrapS": 10497,
      "wrapT": 10497
    },
    {
      "magFilter": 9728,
      "minFilter": 9728,
      "wrapS": 33648,
      "wrapT": 33648
    }
  ],
  "scene": 0,
  "scenes": [
    {
      "name": "Sketchfab_Scene",
      "nodes": [
        0
      ]
    }
  ],
  "textures": [
    {
      "sampler": 0,
      "source": 0
    },
    {
      "sampler": 1,
      "source": 1
    }
  ]
}
