{
    "asset" : {
        "generator" : "Khronos glTF Blender I/O v1.8.19",
        "version" : "2.0"
    },
    "scene" : 0,
    "scenes" : [
        {
            "name" : "Scene",
            "nodes" : [
                9
            ]
        }
    ],
    "nodes" : [
        {
            "mesh" : 0,
            "name" : "Object_12"
        },
        {
            "mesh" : 1,
            "name" : "Object_13"
        },
        {
            "mesh" : 2,
            "name" : "Object_14"
        },
        {
            "mesh" : 3,
            "name" : "Object_15"
        },
        {
            "mesh" : 4,
            "name" : "Object_16"
        },
        {
            "mesh" : 5,
            "name" : "Object_17"
        },
        {
            "mesh" : 6,
            "name" : "Object_18"
        },
        {
            "mesh" : 7,
            "name" : "Object_19"
        },
        {
            "children" : [
                0,
                1,
                2,
                3,
                4,
                5,
                6,
                7
            ],
            "name" : "RR64.obj.cleaner.materialmerger.gles"
        },
        {
            "children" : [
                8
            ],
            "name" : "Sketchfab_model",
            "rotation" : [
                -0.7071068286895752,
                0,
                0,
                0.7071068286895752
            ]
        }
    ],
    "materials" : [
        {
            "doubleSided" : true,
            "emissiveFactor" : [
                1,
                1,
                1
            ],
            "emissiveTexture" : {
                "index" : 0
            },
            "name" : "Material__970",
            "pbrMetallicRoughness" : {}
        },
        {
            "doubleSided" : true,
            "emissiveFactor" : [
                1,
                1,
                1
            ],
            "emissiveTexture" : {
                "index" : 1
            },
            "name" : "Material__975",
            "pbrMetallicRoughness" : {}
        },
        {
            "doubleSided" : true,
            "emissiveFactor" : [
                1,
                1,
                1
            ],
            "emissiveTexture" : {
                "index" : 2
            },
            "name" : "Material__981",
            "pbrMetallicRoughness" : {}
        },
        {
            "doubleSided" : true,
            "emissiveFactor" : [
                1,
                1,
                1
            ],
            "emissiveTexture" : {
                "index" : 3
            },
            "name" : "Material__983",
            "pbrMetallicRoughness" : {}
        },
        {
            "alphaMode" : "BLEND",
            "doubleSided" : true,
            "emissiveFactor" : [
                1,
                1,
                1
            ],
            "emissiveTexture" : {
                "index" : 4
            },
            "name" : "Material__985",
            "pbrMetallicRoughness" : {}
        },
        {
            "alphaMode" : "BLEND",
            "doubleSided" : true,
            "emissiveFactor" : [
                1,
                1,
                1
            ],
            "emissiveTexture" : {
                "index" : 5
            },
            "name" : "Material__992",
            "pbrMetallicRoughness" : {}
        },
        {
            "doubleSided" : true,
            "emissiveFactor" : [
                1,
                1,
                1
            ],
            "emissiveTexture" : {
                "index" : 6
            },
            "name" : "Material__993",
            "pbrMetallicRoughness" : {}
        },
        {
            "doubleSided" : true,
            "emissiveFactor" : [
                1,
                1,
                1
            ],
            "emissiveTexture" : {
                "index" : 7
            },
            "name" : "Material__994",
            "pbrMetallicRoughness" : {}
        }
    ],
    "meshes" : [
        {
            "name" : "Object_10",
            "primitives" : [
                {
                    "attributes" : {
                        "POSITION" : 0,
                        "NORMAL" : 1,
                        "TEXCOORD_0" : 2
                    },
                    "indices" : 3,
                    "material" : 0
                }
            ]
        },
        {
            "name" : "Object_11",
            "primitives" : [
                {
                    "attributes" : {
                        "POSITION" : 4,
                        "NORMAL" : 5,
                        "TEXCOORD_0" : 6
                    },
                    "indices" : 7,
                    "material" : 1
                }
            ]
        },
        {
            "name" : "Object_12",
            "primitives" : [
                {
                    "attributes" : {
                        "POSITION" : 8,
                        "NORMAL" : 9,
                        "TEXCOORD_0" : 10
                    },
                    "indices" : 11,
                    "material" : 2
                }
            ]
        },
        {
            "name" : "Object_13",
            "primitives" : [
                {
                    "attributes" : {
                        "POSITION" : 12,
                        "NORMAL" : 13,
                        "TEXCOORD_0" : 14
                    },
                    "indices" : 15,
                    "material" : 3
                }
            ]
        },
        {
            "name" : "Object_14",
            "primitives" : [
                {
                    "attributes" : {
                        "POSITION" : 16,
                        "NORMAL" : 17,
                        "TEXCOORD_0" : 18
                    },
                    "indices" : 19,
                    "material" : 4
                }
            ]
        },
        {
            "name" : "Object_15",
            "primitives" : [
                {
                    "attributes" : {
                        "POSITION" : 20,
                        "NORMAL" : 21,
                        "TEXCOORD_0" : 22
                    },
                    "indices" : 23,
                    "material" : 5
                }
            ]
        },
        {
            "name" : "Object_16",
            "primitives" : [
                {
                    "attributes" : {
                        "POSITION" : 24,
                        "NORMAL" : 25,
                        "TEXCOORD_0" : 26
                    },
                    "indices" : 27,
                    "material" : 6
                }
            ]
        },
        {
            "name" : "Object_17",
            "primitives" : [
                {
                    "attributes" : {
                        "POSITION" : 28,
                        "NORMAL" : 29,
                        "TEXCOORD_0" : 30
                    },
                    "indices" : 31,
                    "material" : 7
                }
            ]
        }
    ],
    "textures" : [
        {
            "sampler" : 0,
            "source" : 0
        },
        {
            "sampler" : 0,
            "source" : 1
        },
        {
            "sampler" : 0,
            "source" : 2
        },
        {
            "sampler" : 0,
            "source" : 3
        },
        {
            "sampler" : 0,
            "source" : 4
        },
        {
            "sampler" : 0,
            "source" : 5
        },
        {
            "sampler" : 0,
            "source" : 6
        },
        {
            "sampler" : 0,
            "source" : 7
        }
    ],
    "images" : [
        {
            "bufferView" : 4,
            "mimeType" : "image/png",
            "name" : "Material__970_diffuse"
        },
        {
            "bufferView" : 9,
            "mimeType" : "image/png",
            "name" : "Material__975_diffuse"
        },
        {
            "bufferView" : 14,
            "mimeType" : "image/png",
            "name" : "Material__981_diffuse"
        },
        {
            "bufferView" : 19,
            "mimeType" : "image/png",
            "name" : "Material__983_diffuse"
        },
        {
            "bufferView" : 24,
            "mimeType" : "image/png",
            "name" : "Material__985_emissive"
        },
        {
            "bufferView" : 29,
            "mimeType" : "image/png",
            "name" : "Material__992_emissive"
        },
        {
            "bufferView" : 34,
            "mimeType" : "image/png",
            "name" : "Material__993_diffuse"
        },
        {
            "bufferView" : 39,
            "mimeType" : "image/png",
            "name" : "Material__994_diffuse"
        }
    ],
    "accessors" : [
        {
            "bufferView" : 0,
            "componentType" : 5126,
            "count" : 4,
            "max" : [
                11.534500122070312,
                -3.9690959453582764,
                49.8661003112793
            ],
            "min" : [
                5.884099960327148,
                -5.3191962242126465,
                49.8661003112793
            ],
            "type" : "VEC3"
        },
        {
            "bufferView" : 1,
            "componentType" : 5126,
            "count" : 4,
            "type" : "VEC3"
        },
        {
            "bufferView" : 2,
            "componentType" : 5126,
            "count" : 4,
            "type" : "VEC2"
        },
        {
            "bufferView" : 3,
            "componentType" : 5123,
            "count" : 6,
            "type" : "SCALAR"
        },
        {
            "bufferView" : 5,
            "componentType" : 5126,
            "count" : 1478,
            "max" : [
                117.94280242919922,
                267.25201416015625,
                49.8661003112793
            ],
            "min" : [
                -164.8291015625,
                -210.6851043701172,
                -1.3379050493240356
            ],
            "type" : "VEC3"
        },
        {
            "bufferView" : 6,
            "componentType" : 5126,
            "count" : 1478,
            "type" : "VEC3"
        },
        {
            "bufferView" : 7,
            "componentType" : 5126,
            "count" : 1478,
            "type" : "VEC2"
        },
        {
            "bufferView" : 8,
            "componentType" : 5123,
            "count" : 1644,
            "type" : "SCALAR"
        },
        {
            "bufferView" : 10,
            "componentType" : 5126,
            "count" : 81,
            "max" : [
                13.334699630737305,
                -4.7690958976745605,
                54.86650085449219
            ],
            "min" : [
                4.133999824523926,
                -4.769196033477783,
                49.11600112915039
            ],
            "type" : "VEC3"
        },
        {
            "bufferView" : 11,
            "componentType" : 5126,
            "count" : 81,
            "type" : "VEC3"
        },
        {
            "bufferView" : 12,
            "componentType" : 5126,
            "count" : 81,
            "type" : "VEC2"
        },
        {
            "bufferView" : 13,
            "componentType" : 5123,
            "count" : 81,
            "type" : "SCALAR"
        },
        {
            "bufferView" : 15,
            "componentType" : 5126,
            "count" : 4,
            "max" : [
                12.734600067138672,
                -4.769196033477783,
                54.86650085449219
            ],
            "min" : [
                4.734000205993652,
                -4.769196033477783,
                53.36640167236328
            ],
            "type" : "VEC3"
        },
        {
            "bufferView" : 16,
            "componentType" : 5126,
            "count" : 4,
            "type" : "VEC3"
        },
        {
            "bufferView" : 17,
            "componentType" : 5126,
            "count" : 4,
            "type" : "VEC2"
        },
        {
            "bufferView" : 18,
            "componentType" : 5123,
            "count" : 6,
            "type" : "SCALAR"
        },
        {
            "bufferView" : 20,
            "componentType" : 5126,
            "count" : 24,
            "max" : [
                13.184700012207031,
                -4.769166946411133,
                54.86650085449219
            ],
            "min" : [
                4.283999919891357,
                -4.769196033477783,
                53.20808410644531
            ],
            "type" : "VEC3"
        },
        {
            "bufferView" : 21,
            "componentType" : 5126,
            "count" : 24,
            "type" : "VEC3"
        },
        {
            "bufferView" : 22,
            "componentType" : 5126,
            "count" : 24,
            "type" : "VEC2"
        },
        {
            "bufferView" : 23,
            "componentType" : 5123,
            "count" : 24,
            "type" : "SCALAR"
        },
        {
            "bufferView" : 25,
            "componentType" : 5126,
            "count" : 2838,
            "max" : [
                117.94280242919922,
                267.25201416015625,
                50.3661003112793
            ],
            "min" : [
                -164.8291015625,
                -210.6851043701172,
                -1.3379050493240356
            ],
            "type" : "VEC3"
        },
        {
            "bufferView" : 26,
            "componentType" : 5126,
            "count" : 2838,
            "type" : "VEC3"
        },
        {
            "bufferView" : 27,
            "componentType" : 5126,
            "count" : 2838,
            "type" : "VEC2"
        },
        {
            "bufferView" : 28,
            "componentType" : 5123,
            "count" : 3108,
            "type" : "SCALAR"
        },
        {
            "bufferView" : 30,
            "componentType" : 5126,
            "count" : 10,
            "max" : [
                -47.06999969482422,
                21.38290023803711,
                11.063097953796387
            ],
            "min" : [
                -59.67100143432617,
                20.082799911499023,
                -2.2880020141601562
            ],
            "type" : "VEC3"
        },
        {
            "bufferView" : 31,
            "componentType" : 5126,
            "count" : 10,
            "type" : "VEC3"
        },
        {
            "bufferView" : 32,
            "componentType" : 5126,
            "count" : 10,
            "type" : "VEC2"
        },
        {
            "bufferView" : 33,
            "componentType" : 5123,
            "count" : 24,
            "type" : "SCALAR"
        },
        {
            "bufferView" : 35,
            "componentType" : 5126,
            "count" : 74,
            "max" : [
                -46.77000045776367,
                21.38290023803711,
                11.063098907470703
            ],
            "min" : [
                -59.67100143432617,
                17.582599639892578,
                -2.2880020141601562
            ],
            "type" : "VEC3"
        },
        {
            "bufferView" : 36,
            "componentType" : 5126,
            "count" : 74,
            "type" : "VEC3"
        },
        {
            "bufferView" : 37,
            "componentType" : 5126,
            "count" : 74,
            "type" : "VEC2"
        },
        {
            "bufferView" : 38,
            "componentType" : 5123,
            "count" : 84,
            "type" : "SCALAR"
        }
    ],
    "bufferViews" : [
        {
            "buffer" : 0,
            "byteLength" : 48,
            "byteOffset" : 0
        },
        {
            "buffer" : 0,
            "byteLength" : 48,
            "byteOffset" : 48
        },
        {
            "buffer" : 0,
            "byteLength" : 32,
            "byteOffset" : 96
        },
        {
            "buffer" : 0,
            "byteLength" : 12,
            "byteOffset" : 128
        },
        {
            "buffer" : 0,
            "byteLength" : 95,
            "byteOffset" : 140
        },
        {
            "buffer" : 0,
            "byteLength" : 17736,
            "byteOffset" : 236
        },
        {
            "buffer" : 0,
            "byteLength" : 17736,
            "byteOffset" : 17972
        },
        {
            "buffer" : 0,
            "byteLength" : 11824,
            "byteOffset" : 35708
        },
        {
            "buffer" : 0,
            "byteLength" : 3288,
            "byteOffset" : 47532
        },
        {
            "buffer" : 0,
            "byteLength" : 352,
            "byteOffset" : 50820
        },
        {
            "buffer" : 0,
            "byteLength" : 972,
            "byteOffset" : 51172
        },
        {
            "buffer" : 0,
            "byteLength" : 972,
            "byteOffset" : 52144
        },
        {
            "buffer" : 0,
            "byteLength" : 648,
            "byteOffset" : 53116
        },
        {
            "buffer" : 0,
            "byteLength" : 162,
            "byteOffset" : 53764
        },
        {
            "buffer" : 0,
            "byteLength" : 102,
            "byteOffset" : 53928
        },
        {
            "buffer" : 0,
            "byteLength" : 48,
            "byteOffset" : 54032
        },
        {
            "buffer" : 0,
            "byteLength" : 48,
            "byteOffset" : 54080
        },
        {
            "buffer" : 0,
            "byteLength" : 32,
            "byteOffset" : 54128
        },
        {
            "buffer" : 0,
            "byteLength" : 12,
            "byteOffset" : 54160
        },
        {
            "buffer" : 0,
            "byteLength" : 2904,
            "byteOffset" : 54172
        },
        {
            "buffer" : 0,
            "byteLength" : 288,
            "byteOffset" : 57076
        },
        {
            "buffer" : 0,
            "byteLength" : 288,
            "byteOffset" : 57364
        },
        {
            "buffer" : 0,
            "byteLength" : 192,
            "byteOffset" : 57652
        },
        {
            "buffer" : 0,
            "byteLength" : 48,
            "byteOffset" : 57844
        },
        {
            "buffer" : 0,
            "byteLength" : 119,
            "byteOffset" : 57892
        },
        {
            "buffer" : 0,
            "byteLength" : 34056,
            "byteOffset" : 58012
        },
        {
            "buffer" : 0,
            "byteLength" : 34056,
            "byteOffset" : 92068
        },
        {
            "buffer" : 0,
            "byteLength" : 22704,
            "byteOffset" : 126124
        },
        {
            "buffer" : 0,
            "byteLength" : 6216,
            "byteOffset" : 148828
        },
        {
            "buffer" : 0,
            "byteLength" : 84,
            "byteOffset" : 155044
        },
        {
            "buffer" : 0,
            "byteLength" : 120,
            "byteOffset" : 155128
        },
        {
            "buffer" : 0,
            "byteLength" : 120,
            "byteOffset" : 155248
        },
        {
            "buffer" : 0,
            "byteLength" : 80,
            "byteOffset" : 155368
        },
        {
            "buffer" : 0,
            "byteLength" : 48,
            "byteOffset" : 155448
        },
        {
            "buffer" : 0,
            "byteLength" : 447,
            "byteOffset" : 155496
        },
        {
            "buffer" : 0,
            "byteLength" : 888,
            "byteOffset" : 155944
        },
        {
            "buffer" : 0,
            "byteLength" : 888,
            "byteOffset" : 156832
        },
        {
            "buffer" : 0,
            "byteLength" : 592,
            "byteOffset" : 157720
        },
        {
            "buffer" : 0,
            "byteLength" : 168,
            "byteOffset" : 158312
        },
        {
            "buffer" : 0,
            "byteLength" : 84,
            "byteOffset" : 158480
        }
    ],
    "samplers" : [
        {
            "magFilter" : 9729,
            "minFilter" : 9987
        }
    ],
    "buffers" : [
        {
            "byteLength" : 158564,
            "uri" : "data:application/octet-stream;base64,"
        }
    ]
}
